<?xml version="1.0" encoding="UTF-8"?>
<svg width="40px" height="40px" viewBox="0 0 40 40" version="1.1" xmlns="http://www.w3.org/2000/svg" xmlns:xlink="http://www.w3.org/1999/xlink">
    <!-- Generator: Sketch 54.1 (76490) - https://sketchapp.com -->
    <title>24/basic-cross-framed</title>
    <desc>Created with Sketch.</desc>
    <defs>
        <path d="M4,24 C4,35.046 12.954,44 24,44 C35.046,44 44,35.046 44,24 C44,12.954 35.046,4 24,4 C12.954,4 4,12.954 4,24 Z M24,8 C32.836556,8 40,15.163444 40,24 C40,32.836556 32.836556,40 24,40 C15.163444,40 8,32.836556 8,24 C8.00991977,15.1675562 15.1675562,8.00991977 24,8 Z M19,24 C20.6568542,24 22,22.6568542 22,21 C22,19.3431458 20.6568542,18 19,18 C17.3431458,18 16,19.3431458 16,21 C16,22.6568542 17.3431458,24 19,24 Z M29,24 C30.6568542,24 32,22.6568542 32,21 C32,19.3431458 30.6568542,18 29,18 C27.3431458,18 26,19.3431458 26,21 C26,22.6568542 27.3431458,24 29,24 Z M16.718,28.734 C16.3824201,29.0737 16.1955689,29.5328202 16.1985696,30.0103146 C16.2015704,30.487809 16.3941772,30.9445445 16.734,31.28 C18.704746,33.1108414 21.3106529,34.1028505 24,34.046 C26.6893471,34.1028505 29.295254,33.1108414 31.266,31.28 C31.7236572,30.8277018 31.9052517,30.1656037 31.7423785,29.5431118 C31.5795054,28.9206199 31.0969089,28.4323055 30.4763785,28.2621118 C29.8558482,28.0919182 29.1916572,28.2657018 28.734,28.718 C25.9871777,30.9907648 22.0128223,30.9907648 19.266,28.718 C18.926217,28.3818066 18.4666665,28.194567 17.9886817,28.1975685 C17.510697,28.20057 17.0535341,28.393566 16.718,28.734 L16.718,28.734 Z" id="path-1"></path>
    </defs>
    <g id="Playground" stroke="none" stroke-width="1" fill="none" fill-rule="evenodd">
        <g id="Desktop-Copy" transform="translate(-524.000000, -473.000000)">
            <g id="Group-3" transform="translate(496.000000, 315.000000)">
                <g id="Group-2" transform="translate(24.000000, 154.000000)">
                    <g id="Checks">
                        <g id="Check---Normal-text">
                            <g id="24/emo-smile">
                                <mask id="mask-2" fill="white">
                                    <use xlink:href="#path-1"></use>
                                </mask>
                                <g id="icons/24emo-smile" fill-rule="nonzero"></g>
                                <g id="x_icon/default" mask="url(#mask-2)" fill="#229B4B" fill-rule="evenodd">
                                    <rect id="Rectangle" x="0" y="0" width="48" height="48"></rect>
                                </g>
                            </g>
                        </g>
                    </g>
                </g>
            </g>
        </g>
    </g>
</svg>