<?xml version="1.0" encoding="UTF-8"?>
<svg width="40px" height="40px" viewBox="0 0 40 40" version="1.1" xmlns="http://www.w3.org/2000/svg" xmlns:xlink="http://www.w3.org/1999/xlink">
    <!-- Generator: Sketch 54.1 (76490) - https://sketchapp.com -->
    <title>24/basic-cross-framed/sad</title>
    <desc>Created with Sketch.</desc>
    <defs>
        <path d="M20,40 C14.6956702,40 9.60859195,37.8928632 5.85786438,34.1421356 C2.10713681,30.3914081 4.4408921e-16,25.3043298 0,20 C8.8817842e-16,8.954 8.954,0 20,0 C31.046,0 40,8.954 40,20 C40,31.046 31.046,40 20,40 Z M19.968,27.6 C18.6437102,27.5360904 17.3411805,27.9546338 16.302,28.778 C15.8568471,29.2424453 15.1977302,29.4341242 14.5729323,29.2808331 C13.9481345,29.1275419 13.4525773,28.6525694 13.2729323,28.034833 C13.0932874,27.4170967 13.2568471,26.7504453 13.702,26.286 C15.4473775,24.7905117 17.6756616,23.9783532 19.974,24 C22.2988663,23.9157635 24.5660373,24.7350415 26.3,26.286 C26.7451529,26.7504453 26.9087126,27.4170967 26.7290677,28.034833 C26.5494227,28.6525694 26.0538655,29.1275419 25.4290677,29.2808331 C24.8042698,29.4341242 24.1451529,29.2424453 23.7,28.778 C22.6327188,27.959674 21.3116748,27.5426885 19.968,27.6 L19.968,27.6 Z M25,20 C23.3431458,20 22,18.6568542 22,17 C22,15.3431458 23.3431458,14 25,14 C26.6568542,14 28,15.3431458 28,17 C28,18.6568542 26.6568542,20 25,20 Z M15,20 C13.3431458,20 12,18.6568542 12,17 C12,15.3431458 13.3431458,14 15,14 C16.6568542,14 18,15.3431458 18,17 C18,18.6568542 16.6568542,20 15,20 Z M20,4 C11.1675562,4.00991977 4.00991977,11.1675562 4,20 C4,28.836556 11.163444,36 20,36 C28.836556,36 36,28.836556 36,20 C36,11.163444 28.836556,4 20,4 Z" id="path-1"></path>
    </defs>
    <g id="Playground" stroke="none" stroke-width="1" fill="none" fill-rule="evenodd">
        <g id="Desktop-Copy" transform="translate(-212.000000, -423.000000)">
            <g id="Group" transform="translate(184.000000, 315.000000)">
                <g id="Checks" transform="translate(24.000000, 108.000000)">
                    <g id="Check---Normal-text" transform="translate(4.000000, 0.000000)">
                        <g id="24/basic-cross-framed/sad">
                            <mask id="mask-2" fill="white">
                                <use xlink:href="#path-1"></use>
                            </mask>
                            <g id="icons/24emo-sad" fill-rule="nonzero"></g>
                            <g id="x_icon/default" mask="url(#mask-2)" fill="#D93A3F">
                                <g transform="translate(-4.000000, -4.000000)" id="Rectangle">
                                    <rect x="0" y="0" width="48" height="48"></rect>
                                </g>
                            </g>
                        </g>
                    </g>
                </g>
            </g>
        </g>
    </g>
</svg>